<svg width="40" height="52" viewBox="0 0 40 52" fill="none" xmlns="http://www.w3.org/2000/svg">
<path fill-rule="evenodd" clip-rule="evenodd" d="M6.21621 26.5406H12.7664C13.8908 27.4069 15.1988 28.1257 16.7142 28.6312L16.7177 28.7027H6.21621V29.7838H16.7554C16.7715 30.6456 16.7452 31.3663 16.6589 31.946H6.21621V33.027H14.335V35.1892H6.21621V36.2703H14.335V38.4325H6.21621V38.9189C6.21621 39.117 6.23344 39.3152 6.26765 39.5135H33.6868C33.7153 39.3172 33.7297 39.119 33.7297 38.9189V38.4325H25.4488V36.2703H33.7297V35.1892H25.4488V33.027H33.7297V31.946H23.1249C23.0386 31.3663 23.0122 30.6456 23.0284 29.7838H33.7297V28.7027H23.0661L23.0696 28.6312C24.585 28.1257 25.8929 27.4069 27.0174 26.5406H33.7297V12.3243H35.8919V38.9189C35.8919 40.8842 34.988 42.5631 33.7198 43.9489C32.4574 45.3285 30.7783 46.4825 29.0662 47.4352C26.4319 48.9012 23.5231 49.9878 21.6947 50.6708L21.6943 50.671C21.1648 50.8688 20.726 51.0327 20.4107 51.1622L20.0105 51.3266L19.6073 51.1694C19.4141 51.0941 19.186 51.0071 18.9282 50.9089L18.9264 50.9082L18.9253 50.9078L18.9253 50.9078C17.1068 50.2146 13.8137 48.9594 10.8318 47.2407C9.12737 46.2583 7.46462 45.0919 6.21613 43.7439C4.96868 42.397 4.05405 40.7784 4.05405 38.9189V12.3243H6.21621V26.5406Z" fill="#5478ED"/>
<path fill-rule="evenodd" clip-rule="evenodd" d="M9.62688 23.1402C7.04616 22.4977 5.31282 20.7515 4.14849 18.6004C2.8669 16.2327 2.3151 13.4233 2.19046 11.2434H6.21621V9.08123H0.00857714L0.000479667 10.1541C-0.0184693 12.6649 0.520469 16.4399 2.24701 19.6296C3.97004 22.8129 6.92596 25.4725 11.6372 25.5652C10.8662 24.8209 10.1998 24.0024 9.62688 23.1402ZM28.2 25.5133C33.0041 25.4796 36.0085 22.8067 37.7523 19.5973C39.4794 16.4185 40.0185 12.6563 39.9995 10.1541L39.9914 9.08118H33.7297V11.2433H37.8093C37.6842 13.4135 37.1325 16.2089 35.8524 18.5651C34.6568 20.7657 32.8598 22.5425 30.1587 23.1375C29.5987 23.9807 28.9492 24.7821 28.2 25.5133Z" fill="#FFAA2A"/>
<path fill-rule="evenodd" clip-rule="evenodd" d="M31.5789 9.08118H19.741V9.08123H7.95726C7.52483 14.2164 9.03834 25.0055 18.5519 27.0812C18.8762 31.7299 18.8762 35.2974 16.1735 35.2974V36.9731H19.7951V36.9731H23.3627V35.2974C20.66 35.2974 20.66 31.7298 20.9843 27.0812C30.4978 25.0055 32.0113 14.2163 31.5789 9.08118ZM19.7838 11.5676L20.8685 14.4266L23.3513 15.6757L20.8685 16.9248L19.7838 19.7838L18.699 16.9248L16.2162 15.6757L18.699 14.4266L19.7838 11.5676ZM17.6757 17.6217L14.2703 15.892L15.1351 19.946L19.1892 21.3514L17.6757 17.6217ZM25.1351 15.892L21.7297 17.6217L20.2162 21.3514L24.2703 19.946L25.1351 15.892Z" fill="#FFAA2A"/>
<path d="M19.7838 0L21.0105 2.2211L23.4594 2.72538L21.7686 4.60237L22.0555 7.13514L19.7838 6.07408L17.5121 7.13514L17.7989 4.60237L16.1081 2.72538L18.5571 2.2211L19.7838 0Z" fill="#FFAA2B"/>
</svg>
